<?xml version="1.0" encoding="utf-8"?>
<svg width="140.501" height="25" viewBox="0 0 140.501 25" fill="none" xmlns="http://www.w3.org/2000/svg">
  <g id="Group" transform="translate(0.5 0.5)">
    <path id="Shape" d="M11 0L11 24M0.104171 18.0013L21.8958 5.9987M21.8958 18.0013L0.104171 5.99806M4.41863 8.37535L4.41863 3.72454M6.58137 2.77622L11 4.74162M4.41863 8.37535L0 10.3408M15.4193 2.77622L11 4.74162M6.58137 21.1901L11 19.2247M15.4193 21.1901L11 19.2247M4.4338 15.6175L0.0151741 13.6521M22 10.3408L17.5814 8.37535M21.9862 13.6521L17.5669 15.6175M17.5676 20.269L17.5676 15.6175M4.4338 20.269L4.4338 15.6175M17.5814 8.37535L17.5814 3.72454" fill="none" stroke-width="1" stroke="#5A5A5A" stroke-linecap="round" stroke-linejoin="round" />
    <path id="Path" d="M5.72736 0.130005L7.97012 0.130005L13.6419 13.1306L11.3064 13.1306L6.78387 2.34011L2.27983 13.1306L0 13.1306L5.72736 0.130005ZM2.85442 8.26465L10.6206 8.26465L10.6206 10.1219L2.85442 10.1219L2.85442 8.26465ZM20.6853 0.130005C21.6614 0.130005 22.5573 0.290965 23.3729 0.612885C24.1884 0.934805 24.8958 1.38673 25.4951 1.96866C26.0944 2.55059 26.5609 3.23776 26.8945 4.03018C27.2282 4.8226 27.395 5.6893 27.395 6.6303C27.395 7.57129 27.2282 8.4349 26.8945 9.22113C26.5609 10.0074 26.0913 10.6945 25.4859 11.2826C24.8804 11.8708 24.1637 12.3258 23.3358 12.6477C22.5079 12.9696 21.6058 13.1306 20.6297 13.1306L15.3657 13.1306L15.3657 0.130005L20.6853 0.130005ZM20.7409 11.2548C21.3711 11.2548 21.9549 11.1434 22.4924 10.9205C23.03 10.6976 23.4995 10.3788 23.9011 9.96402C24.3027 9.54924 24.6178 9.06017 24.8464 8.49681C25.075 7.93345 25.1893 7.31747 25.1893 6.64887C25.1893 5.96789 25.0719 5.34572 24.8371 4.78236C24.6024 4.219 24.2811 3.72683 23.8733 3.30586C23.4655 2.88489 22.9867 2.56297 22.4368 2.34011C21.887 2.11724 21.2907 2.0058 20.6482 2.0058L17.5528 2.0058L17.5528 11.2548L20.7409 11.2548ZM29.7302 0.130005L31.9173 0.130005L31.9173 13.1306L29.7302 13.1306L29.7302 0.130005ZM39.3687 0.130005L41.6115 0.130005L47.2832 13.1306L44.9478 13.1306L40.4252 2.34011L35.9212 13.1306L33.6413 13.1306L39.3687 0.130005ZM36.4957 8.26465L44.262 8.26465L44.262 10.1219L36.4957 10.1219L36.4957 8.26465ZM54.6417 0.130005C55.5438 0.130005 56.3192 0.260011 56.9679 0.520024C57.6166 0.780035 58.1171 1.15148 58.4692 1.63436C58.8214 2.11724 58.9975 2.69917 58.9975 3.38015C58.9975 4.11066 58.7936 4.73593 58.3858 5.25595C57.9781 5.77597 57.422 6.11647 56.7177 6.27742C57.5826 6.426 58.2623 6.79126 58.7566 7.37319C59.2508 7.95512 59.4979 8.68563 59.4979 9.56471C59.4979 10.3076 59.3064 10.9453 58.9234 11.4777C58.5403 12.0101 57.9966 12.4187 57.2923 12.7034C56.5879 12.9882 55.7477 13.1306 54.7715 13.1306L49.007 13.1306L49.007 0.130005L54.6417 0.130005ZM54.5303 5.53453C55.2222 5.53453 55.7659 5.37667 56.1613 5.06094C56.5568 4.74521 56.7545 4.30257 56.7545 3.73302C56.7545 3.17586 56.5568 2.7456 56.1613 2.44225C55.7659 2.13891 55.2222 1.99342 54.5303 2.0058L51.1939 2.0058L51.1939 5.53453L54.5303 5.53453ZM54.5305 11.2548C55.3832 11.2672 56.0504 11.1031 56.5323 10.7626C57.0143 10.4221 57.2552 9.93616 57.2552 9.3047C57.2552 8.71039 57.0143 8.24299 56.5323 7.9025C56.0504 7.56201 55.3832 7.39795 54.5305 7.41033L51.1942 7.41033L51.1942 11.2548L54.5305 11.2548ZM66.1335 0.130005L68.3763 0.130005L74.048 13.1306L71.7126 13.1306L67.19 2.34011L62.686 13.1306L60.4061 13.1306L66.1335 0.130005ZM63.2606 8.26465L71.0268 8.26465L71.0268 10.1219L63.2606 10.1219L63.2606 8.26465ZM72.9545 0.130005L83.3527 0.130005L83.3527 2.0058L79.2379 2.0058L79.2379 13.1306L77.0507 13.1306L77.0507 2.0058L72.9545 2.0058L72.9545 0.130005ZM86.7076 0.130005L88.8947 0.130005L88.8947 13.1306L86.7076 13.1306L86.7076 0.130005ZM101.703 3.51016C101.233 2.99013 100.677 2.58155 100.034 2.28439C99.3918 1.98723 98.7431 1.83865 98.0882 1.83865C97.4456 1.83865 96.8432 1.95937 96.281 2.20081C95.7188 2.44225 95.2245 2.77965 94.7982 3.213C94.3719 3.64635 94.0413 4.1509 93.8065 4.72664C93.5718 5.30238 93.4544 5.92455 93.4544 6.59315C93.4544 7.24937 93.5718 7.86535 93.8065 8.4411C94.0413 9.01683 94.3719 9.52138 94.7982 9.95473C95.2245 10.3881 95.7188 10.7286 96.281 10.9762C96.8432 11.2238 97.4456 11.3477 98.0882 11.3477C98.7431 11.3477 99.3856 11.2084 100.016 10.9298C100.646 10.6512 101.208 10.2705 101.703 9.78759L103 11.1434C102.568 11.5767 102.076 11.9543 101.526 12.2763C100.977 12.5982 100.402 12.8458 99.8027 13.0192C99.2034 13.1925 98.5948 13.2792 97.977 13.2792C97.0255 13.2792 96.142 13.1089 95.3264 12.7684C94.5109 12.4279 93.7973 11.9543 93.1856 11.3477C92.574 10.741 92.0951 10.0321 91.7491 9.22113C91.4031 8.41014 91.2302 7.54034 91.2302 6.61173C91.2302 5.68311 91.4031 4.8195 91.7491 4.0209C92.0951 3.22229 92.5801 2.51964 93.2041 1.91294C93.8282 1.30625 94.551 0.835752 95.3728 0.501452C96.1945 0.167151 97.0873 0 98.0511 0C98.6689 0 99.2744 0.08048 99.8675 0.24144C100.461 0.402399 101.023 0.631457 101.554 0.928615C102.086 1.22577 102.561 1.58483 102.981 2.0058L101.703 3.51016ZM0.67654 18.0685C0.67654 17.639 0.782726 17.2492 0.995113 16.899C1.20749 16.5488 1.49132 16.2693 1.84657 16.0604C2.20183 15.8514 2.5957 15.747 3.02819 15.747L7.34341 15.747L7.34341 16.9658L3.02819 16.9658C2.71541 16.9658 2.44897 17.0731 2.22886 17.2879C2.00875 17.5026 1.8987 17.7628 1.8987 18.0685L1.8987 21.7017C1.8987 21.9957 2.00875 22.2482 2.22886 22.4591C2.44897 22.67 2.71541 22.7754 3.02819 22.7754L7.34341 22.7754L7.34341 24L3.02819 24C2.5957 24 2.20183 23.8975 1.84657 23.6924C1.49132 23.4873 1.20749 23.2116 0.995113 22.8653C0.782726 22.5191 0.67654 22.137 0.67654 21.7191L0.67654 18.0685ZM8.79149 18.0685C8.79149 17.639 8.9025 17.2492 9.12454 16.899C9.34658 16.5488 9.64295 16.2693 10.0137 16.0604C10.3844 15.8514 10.7956 15.747 11.2474 15.747L13.1762 15.747C13.628 15.747 14.0402 15.8514 14.4129 16.0604C14.7855 16.2693 15.0819 16.5488 15.302 16.899C15.5221 17.2492 15.6321 17.639 15.6321 18.0685L15.6321 21.6785C15.6321 22.1041 15.5221 22.4929 15.302 22.845C15.0819 23.1971 14.7855 23.4777 14.4129 23.6866C14.0402 23.8955 13.628 24 13.1762 24L11.2474 24C10.7956 24 10.3844 23.8955 10.0137 23.6866C9.64295 23.4777 9.34658 23.1971 9.12454 22.845C8.9025 22.4929 8.79149 22.1041 8.79149 21.6785L8.79149 18.0685ZM10.0136 21.6843C10.0136 21.9861 10.1343 22.2444 10.3757 22.4591C10.617 22.6738 10.9076 22.7812 11.2474 22.7812L13.1762 22.7812C13.5199 22.7812 13.8114 22.6738 14.0508 22.4591C14.2903 22.2444 14.41 21.9861 14.41 21.6843L14.41 18.0627C14.41 17.7609 14.2903 17.5026 14.0508 17.2879C13.8114 17.0731 13.5199 16.9658 13.1762 16.9658L11.2474 16.9658C10.9076 16.9658 10.617 17.0731 10.3757 17.2879C10.1343 17.5026 10.0136 17.7609 10.0136 18.0627L10.0136 21.6843ZM17.2539 18.0685C17.2539 17.639 17.3649 17.2492 17.587 16.899C17.809 16.5488 18.1054 16.2693 18.4761 16.0604C18.8468 15.8514 19.258 15.747 19.7098 15.747L21.6387 15.747C22.0904 15.747 22.5027 15.8514 22.8753 16.0604C23.2479 16.2693 23.5443 16.5488 23.7644 16.899C23.9845 17.2492 24.0946 17.639 24.0946 18.0685L24.0946 21.6785C24.0946 22.1041 23.9845 22.4929 23.7644 22.845C23.5443 23.1971 23.2479 23.4777 22.8753 23.6866C22.5027 23.8955 22.0904 24 21.6387 24L19.7098 24C19.258 24 18.8468 23.8955 18.4761 23.6866C18.1054 23.4777 17.809 23.1971 17.587 22.845C17.3649 22.4929 17.2539 22.1041 17.2539 21.6785L17.2539 18.0685ZM18.4761 21.6843C18.4761 21.9861 18.5967 22.2444 18.8381 22.4591C19.0794 22.6738 19.37 22.7812 19.7098 22.7812L21.6386 22.7812C21.9823 22.7812 22.2738 22.6738 22.5132 22.4591C22.7527 22.2444 22.8724 21.9861 22.8724 21.6843L22.8724 18.0627C22.8724 17.7609 22.7527 17.5026 22.5132 17.2879C22.2738 17.0731 21.9823 16.9658 21.6386 16.9658L19.7098 16.9658C19.37 16.9658 19.0794 17.0731 18.8381 17.2879C18.5967 17.5026 18.4761 17.7609 18.4761 18.0627L18.4761 21.6843ZM25.7164 15.747L26.9328 15.747L26.9328 21.6901C26.9328 21.9919 27.039 22.2492 27.2513 22.462C27.4637 22.6748 27.7186 22.7812 28.0159 22.7812L32.0994 22.7812L32.0994 24L28.0159 24C27.595 24 27.2098 23.8965 26.8604 23.6895C26.5109 23.4825 26.2329 23.2039 26.0263 22.8537C25.8197 22.5036 25.7164 22.1157 25.7164 21.6901L25.7164 15.747ZM33.1422 15.747L34.625 15.747L34.625 24L33.1422 24L33.1422 15.747ZM35.986 15.747L37.573 15.747L41.1584 22.2298L41.1584 15.747L42.3806 15.747L42.3806 24L40.7935 24L37.2081 17.6042L37.2081 24L35.986 24L35.986 15.747ZM43.8865 18.0685C43.8865 17.639 43.9975 17.2492 44.2196 16.899C44.4416 16.5488 44.738 16.2693 45.1087 16.0604C45.4794 15.8514 45.8906 15.747 46.3424 15.747L50.2406 15.747L50.2406 16.9658L46.3424 16.9658C46.0026 16.9658 45.712 17.0731 45.4707 17.2879C45.2294 17.5026 45.1087 17.7609 45.1087 18.0627L45.1087 21.6843C45.1087 21.9861 45.2294 22.2443 45.4707 22.4591C45.712 22.6738 46.0026 22.7812 46.3424 22.7812L48.2712 22.7812C48.6149 22.7812 48.9065 22.6738 49.1459 22.4591C49.3853 22.2443 49.505 21.9861 49.505 21.6843L49.505 20.6048L47.2692 20.6048L47.2692 19.386L50.7271 19.386L50.7271 21.6785C50.7271 22.1041 50.6171 22.4929 50.397 22.845C50.1769 23.1971 49.8805 23.4777 49.5079 23.6866C49.1352 23.8955 48.723 24 48.2712 24L46.3424 24C45.8906 24 45.4794 23.8955 45.1087 23.6866C44.738 23.4777 44.4416 23.1971 44.2196 22.845C43.9975 22.4929 43.8865 22.1041 43.8865 21.6785L43.8865 18.0685ZM55.5926 17.7435C55.5926 17.3759 55.6843 17.0412 55.8677 16.7394C56.0511 16.4376 56.2982 16.1967 56.6091 16.0168C56.9199 15.8369 57.2626 15.747 57.6372 15.747L61.9003 15.747L61.9003 16.9658L57.6372 16.9658C57.4132 16.9658 57.2202 17.0451 57.058 17.2037C56.8958 17.3624 56.8147 17.5539 56.8147 17.7783L56.8147 18.3471C56.8147 18.5521 56.8958 18.7282 57.058 18.8752C57.2202 19.0222 57.4132 19.0958 57.6372 19.0958L60.2611 19.0958C60.6395 19.0958 60.9832 19.1857 61.2921 19.3656C61.601 19.5456 61.8472 19.7874 62.0306 20.0911C62.214 20.3948 62.3057 20.7305 62.3057 21.0981L62.3057 21.9977C62.3057 22.3652 62.214 22.7009 62.0306 23.0046C61.8472 23.3084 61.601 23.5502 61.2921 23.7301C60.9832 23.91 60.6395 24 60.2611 24L55.5984 24L55.5984 22.7754L60.2611 22.7754C60.4889 22.7754 60.683 22.699 60.8432 22.5461C61.0035 22.3933 61.0836 22.2085 61.0836 21.9919L61.0836 21.1039C61.0836 20.8872 61.0035 20.7015 60.8432 20.5467C60.683 20.392 60.4889 20.3146 60.2611 20.3146L57.6372 20.3146C57.2626 20.3146 56.9199 20.2265 56.6091 20.0505C56.2982 19.8744 56.0511 19.6374 55.8677 19.3395C55.6843 19.0416 55.5926 18.7127 55.5926 18.3529L55.5926 17.7435ZM64.4896 15.747L66.7486 18.8752L68.996 15.747L70.4788 15.747L67.3742 20.0592L67.3742 24L66.1231 24L66.1231 20.0592L63.001 15.747L64.4896 15.747ZM71.4054 17.7435C71.4054 17.3759 71.4971 17.0412 71.6805 16.7394C71.8639 16.4376 72.111 16.1967 72.4219 16.0168C72.7327 15.8369 73.0754 15.747 73.45 15.747L77.7131 15.747L77.7131 16.9658L73.45 16.9658C73.226 16.9658 73.033 17.0451 72.8708 17.2037C72.7086 17.3624 72.6275 17.5539 72.6275 17.7783L72.6275 18.3471C72.6275 18.5521 72.7086 18.7282 72.8708 18.8752C73.033 19.0222 73.226 19.0958 73.45 19.0958L76.0739 19.0958C76.4523 19.0958 76.796 19.1857 77.1049 19.3656C77.4138 19.5456 77.66 19.7874 77.8434 20.0911C78.0268 20.3948 78.1186 20.7305 78.1186 21.0981L78.1186 21.9977C78.1186 22.3652 78.0268 22.7009 77.8434 23.0046C77.66 23.3084 77.4138 23.5502 77.1049 23.7301C76.796 23.91 76.4523 24 76.0739 24L71.4112 24L71.4112 22.7754L76.0739 22.7754C76.3017 22.7754 76.4958 22.699 76.656 22.5461C76.8163 22.3933 76.8964 22.2085 76.8964 21.9919L76.8964 21.1039C76.8964 20.8872 76.8163 20.7015 76.656 20.5467C76.4958 20.392 76.3017 20.3146 76.0739 20.3146L73.45 20.3146C73.0754 20.3146 72.7327 20.2265 72.4219 20.0505C72.111 19.8744 71.8639 19.6374 71.6805 19.3395C71.4971 19.0416 71.4054 18.7127 71.4054 18.3529L71.4054 17.7435ZM79.0454 15.747L85.7528 15.747L85.7528 16.9658L83.0131 16.9658L83.0131 24L81.7852 24L81.7852 16.9658L79.0454 16.9658L79.0454 15.747ZM86.7954 15.747L93.1842 15.747L93.1842 16.9658L88.0175 16.9658L88.0175 22.7754L93.1842 22.7754L93.1842 24L86.7954 24L86.7954 15.747ZM88.7128 19.0957L93.1845 19.0957L93.1845 20.5815L88.7128 20.5815L88.7128 19.0957ZM94.6903 15.747L95.8082 15.747L98.4668 19.0029L101.125 15.747L102.243 15.747L102.243 24L101.021 24L101.021 17.8305L98.9765 20.3146L97.9629 20.3146L95.9124 17.8305L95.9124 24L94.6903 24L94.6903 15.747Z" fill="#5A5A5A" transform="translate(37.001 0)" />
  </g>
</svg>