<?xml version="1.0" encoding="utf-8"?>
<svg width="120" height="120" viewBox="0 0 120 120" fill="none" xmlns="http://www.w3.org/2000/svg">
  <g>
    <rect width="120" height="120" />
    <g id="Group" transform="translate(1.738 26.833)">
      <path id="Shape" d="M0 48.2448C0 48.0487 0.179305 47.8868 0.395343 47.8868C0.395343 47.8868 116.083 47.8868 116.083 47.8868C116.299 47.8868 116.478 48.0487 116.478 48.2448C116.478 48.2448 116.478 48.5088 116.478 48.5088C116.478 48.7037 116.299 48.8631 116.083 48.8631C116.083 48.8631 0.395343 48.8631 0.395343 48.8631C0.179305 48.8631 0 48.7037 0 48.5088C0 48.5088 0 48.2448 0 48.2448C0 48.2448 0 48.2448 0 48.2448ZM69.04 16.0241C67.75 16.1013 67.4455 18.6788 69.1141 18.8307C69.1141 18.8307 85.1177 17.8445 85.1177 17.8445C86.1929 17.6048 86.8503 16.9492 87.3173 16.1013C87.3173 16.1013 91.9444 4.79943 91.9444 4.79943C91.9444 4.79943 96.4948 15.3417 96.4948 15.3417C96.9506 16.5582 97.9368 17.6926 99.3793 17.6926C99.3793 17.6926 111.364 18.2262 111.364 18.2262C111.364 18.2262 102.639 25.8871 102.639 25.8871C101.275 26.7214 101.113 27.7791 101.275 29.0722C101.275 29.0722 104.537 40.3747 104.537 40.3747C104.537 40.3747 94.1446 34.3823 94.1446 34.3823C93.0999 33.5076 91.9755 33.2741 90.7328 34.0006C90.7328 34.0006 80.2659 40.2969 80.2659 40.2969C80.2659 40.2969 83.4504 28.9209 83.4504 28.9209C83.7922 27.5058 81.1437 26.9442 80.711 28.1975C80.711 28.1975 76.7763 42.2698 76.7763 42.2698C76.6244 43.9384 78.0663 44.5466 79.7361 43.7118C79.7361 43.7118 92.2513 36.5041 92.2513 36.5041C92.2513 36.5041 105.373 43.8643 105.373 43.8643C106.812 44.6979 108.029 43.256 107.573 41.2831C107.573 41.2831 104.158 28.0861 104.158 28.0861C104.158 28.0861 115.611 18.4521 115.611 18.4521C116.524 17.3141 116.172 16.0981 114.703 15.7974C114.703 15.7974 99.3806 15.0373 99.3806 15.0373C99.3806 15.0373 93.4635 0.701555 93.4635 0.701555C93.0078 -0.206799 91.112 -0.206799 90.8088 0.549643C90.8088 0.549643 84.5891 15.1892 84.5891 15.1892L69.04 16.0241C69.04 16.0241 69.04 16.0241 69.04 16.0241Z" fill="#505050" fill-rule="evenodd" transform="translate(0 17.515)" />
      <path id="Path" d="M105.141 27.4755C105.179 28.4044 104.321 28.5258 104.024 28.2587C95.4951 11.988 70.4478 -3.39801 45.1788 1.99298C17.582 7.88079 4.86128 28.3876 0.990034 46.7228C0.74349 47.5029 -0.178562 47.2557 0.030627 46.4694C4.52322 22.0982 22.831 5.02685 45.1788 0.871701C72.8092 -3.62089 93.8097 9.85315 105.141 27.4755C105.141 27.4755 105.141 27.4755 105.141 27.4755Z" fill="#505050" fill-rule="evenodd" transform="translate(2.435 0)" />
      <path id="Shape" d="M93.3092 0.0520248C87.3474 1.78095 79.9467 5.55072 76.1053 8.09834C76.5369 6.69271 76.8833 5.2623 77.1425 3.81492C77.4295 2.33876 75.9509 1.70061 75.1969 3.52729C73.7644 6.26667 71.7727 8.57398 69.5059 10.6653C68.6666 11.3812 67.5628 11.4422 68.1573 9.99286C68.1573 9.99286 70.403 6.06184 70.403 6.06184C71.0088 4.92313 70.3594 4.07516 68.529 4.8895C68.529 4.8895 62.3162 8.86846 62.3162 8.86846C61.8605 9.04403 61.6208 8.44635 61.8941 7.96011C62.833 7.08848 63.2924 5.86261 63.775 4.71331C64.1336 2.88352 62.998 2.40662 61.0561 2.96695C58.6984 4.03843 56.51 5.58493 54.3409 8.75702C53.5172 8.04727 52.8043 7.27028 52.6555 6.17266C52.0136 4.81853 50.5344 5.89622 49.6055 7.1221C48.9536 5.75428 48.1057 5.91304 47.2683 7.05113C43.9549 11.6147 39.7082 14.7052 38.1549 15.2562C37.635 15.4424 37.3573 15.1983 37.5603 14.9792C39.5837 13.2565 42.7415 10.7537 42.9986 9.09509C43.3703 6.22807 40.982 5.97094 39.2388 7.40289C37.1375 9.12248 36.307 11.2536 35.398 13.861C34.6652 15.2867 30.9328 16.3408 31.0916 14.709C31.0007 13.0971 31.2267 11.8849 31.5206 10.753C31.396 9.3242 29.8825 9.39144 29.1834 10.1585C29.1834 10.1585 26.2852 13.8236 26.2852 13.8236C26.2852 13.8236 28.0316 9.98663 28.0316 9.98663C28.5894 9.28746 27.2614 7.99372 26.3767 9.09446C23.3703 13.4756 19.4081 16.8973 15.1453 19.6504C11.6594 21.7517 9.94665 19.5496 10.9907 18.5285C15.8482 17.3493 23.8777 9.67222 24.019 5.38944C23.8328 1.36939 20.6987 2.58219 17.1656 5.38944C12.7539 8.95935 11.3083 13.0871 9.07877 17.0698C6.33939 17.8972 3.56264 18.2353 0.731739 17.769C-0.213972 17.8736 -0.247591 19.3391 0.657651 19.539C3.25509 19.803 5.96085 19.6946 8.74382 19.3167C9.69638 23.569 12.7639 22.8393 16.1545 21.3364C18.8939 19.5085 21.5287 17.5766 23.7924 15.2736C24.5756 14.6654 23.2078 17.2802 23.0727 18.5024C22.691 19.5869 24.6098 19.935 25.2517 18.9793C25.2517 18.9793 29.41 12.6899 29.41 12.6899C29.339 13.889 29.4131 15.0613 29.8122 16.1652C30.903 18.2901 33.2576 17.4589 35.8114 16.1727C36.4496 17.3008 38.3989 17.8076 40.5269 16.3949C42.1039 15.2363 43.6174 14.054 44.9074 12.8014C44.9074 12.8014 44.509 14.4195 44.509 14.4195C44.161 15.6428 45.9409 15.9566 46.5934 14.9362C47.988 12.5374 49.6802 10.0962 51.3525 8.06596C51.9302 8.96435 52.376 10.0352 53.5546 10.3328C52.4912 13.9905 54.0445 14.9368 57.5678 13.0921C53.7171 17.5617 51.7005 21.1926 51.5623 22.5909C51.2448 27.3201 55.0176 25.3807 56.8113 22.797C59.4859 18.7844 60.9185 12.0119 61.6856 11.8021C61.6856 11.8021 66.8194 7.96198 66.8194 7.96198C66.8194 7.96198 66.1333 11.1166 66.1333 11.1166C65.9111 12.8487 67.5864 14.0353 69.278 12.802C69.278 12.802 73.2103 9.54585 73.2103 9.54585C73.4363 9.54958 73.5614 9.63674 73.3454 10.1977C68.1225 14.8459 65.5157 18.7408 63.6062 23.8479C62.3841 29.0833 67.0242 28.9924 68.9468 25.5943C71.3288 20.9367 73.7096 16.2816 75.1254 11.2081C80.9111 6.86746 87.2515 3.9027 93.9599 1.86186C95.2717 1.04814 94.3291 -0.279221 93.3093 0.0519981C93.3093 0.0519981 93.3092 0.0520248 93.3092 0.0520248ZM40.5543 8.52295C40.8145 8.32746 41.1825 8.51984 41.0138 8.84732C40.6253 9.94868 38.6056 11.5593 38.3416 11.5799C38.2302 11.3408 39.72 9.13185 40.5543 8.52295C40.5543 8.52295 40.5543 8.52295 40.5543 8.52295ZM11.9103 15.6204C14.0551 11.7187 16.7907 7.40914 20.8917 5.00035C21.8916 4.52034 22.5777 4.9767 22.0373 5.9361C20.0811 10.2027 16.2441 14.1574 12.2315 15.8975C11.9844 16.0058 11.6432 16.0251 11.9103 15.6204C11.9103 15.6204 11.9103 15.6204 11.9103 15.6204ZM55.6595 12.0126C55.177 12.2691 54.7512 11.4385 55.1228 10.7668C55.2884 10.2295 56.3892 11.1814 57.5447 10.6752C56.9601 11.1546 56.3861 11.6415 55.6595 12.0126C55.6595 12.0126 55.6595 12.0126 55.6595 12.0126ZM54.3726 22.8288C53.8117 23.6363 53.1467 22.8823 53.5857 21.832C54.7947 19.3859 56.5953 16.8059 58.1729 15.1404C57.3928 17.647 56.1227 20.6933 54.3726 22.8288C54.3726 22.8288 54.3726 22.8288 54.3726 22.8288ZM61.4452 5.35212C60.4092 6.88243 58.7407 8.01056 57.0348 8.6319C58.214 6.93971 59.5582 5.79104 60.9527 4.7949C61.3176 4.55396 61.6862 5.00035 61.4452 5.35211C61.4452 5.35211 61.4452 5.35212 61.4452 5.35212ZM66.4757 25.5675C65.4553 26.8108 64.7866 25.537 65.2013 24.4226C66.124 21.4267 68.864 17.1912 71.6837 14.6336C70.5966 18.1264 68.9175 22.5953 66.4757 25.5675C66.4757 25.5675 66.4757 25.5675 66.4757 25.5675Z" fill="#505050" fill-rule="evenodd" transform="translate(0.348 35.919)" />
    </g>
  </g>
</svg>