<?xml version="1.0" encoding="utf-8"?>
<svg width="90.638" height="12" viewBox="0 0 90.638 12" fill="none" xmlns="http://www.w3.org/2000/svg">
  <defs>
    <clipPath id="clip_path_1">
      <rect width="12" height="12" />
    </clipPath>
  </defs>
  <g id="Group">
    <g clip-path="url(#clip_path_1)">
      <rect width="12" height="12" />
      <path id="Shape" d="M5.27639 9.799L5.27639 12M1.50755 6.28141C1.50755 6.28141 3.37891 6.28141 3.37891 6.28141C2.42101 7.56818 1.28306 8.71052 0 9.67338C0 9.67338 0 9.799 0 9.799L10.5528 9.799C10.5528 9.799 10.5528 9.67338 10.5528 9.67338C9.2697 8.71053 8.13176 7.56818 7.17386 6.28141C7.17386 6.28141 9.04524 6.28141 9.04524 6.28141L9.04524 6.15578C9.04524 6.15578 8.34875 5.63317 8.34875 5.63317C6.55672 4.28938 5.43583 2.23422 5.27639 0C5.11696 2.23422 3.99606 4.28937 2.20403 5.63316C2.20403 5.63316 1.50755 6.15578 1.50755 6.15578L1.50755 6.28141Z" fill="none" stroke-width="1" stroke="#5D5D5D" transform="translate(0.75 0.03)" />
    </g>
    <path id="Path" d="M0 11.7692L0.412088 0L0.60989 0L8.9011 10.022L9 10.022L8.63736 0.23077L9.75824 0.23077L9.34615 12L9.14835 12L0.857143 1.97802L0.758242 1.97802L1.12088 11.7692L0 11.7692ZM12.0824 11.7692L16.5165 0.230769L17.5385 0.230769L21.9725 11.7692L20.7692 11.7692L18.7253 6.36264L14.9835 6.36264L13.2857 11.7692L12.0824 11.7692ZM16.6319 1.08791L15.0989 5.96703L18.5769 5.96703L16.7308 1.08791L16.6319 1.08791ZM26.2912 11.7692L26.2912 0.56044C26.1264 0.56044 25.7857 0.593407 25.2692 0.659341L22.0385 1.07143L22.0385 0.230769L31.6648 0.230769L31.6648 1.07143L28.4341 0.659341C27.9176 0.593407 27.5769 0.56044 27.4121 0.56044L27.4121 11.7692L26.2912 11.7692ZM34.1703 0.230769L35.2912 0.230769L35.2912 7.18681C35.2912 8.51648 35.6181 9.5522 36.272 10.294C36.9258 11.0357 37.8461 11.4066 39.033 11.4066C39.7802 11.4066 40.4313 11.261 40.9863 10.9698C41.5412 10.6786 41.9698 10.2747 42.272 9.75824C42.5742 9.24176 42.7143 8.64835 42.6923 7.97802L42.4121 0.230769L43.533 0.230769L43.2527 7.97802C43.2088 9.2967 42.8159 10.2967 42.0742 10.978C41.3324 11.6593 40.2747 12 38.9011 12C37.4176 12 36.2582 11.5687 35.4231 10.706C34.5879 9.84341 34.1703 8.65934 34.1703 7.15385L34.1703 0.230769ZM47.489 0.230769L49.6978 0.230769C50.8626 0.230769 51.7665 0.475275 52.4093 0.964285C53.0522 1.4533 53.3736 2.13736 53.3736 3.01648C53.3736 3.6978 53.1731 4.26374 52.772 4.71428C52.3709 5.16483 51.7912 5.46703 51.033 5.62088L51.033 5.71978C51.7582 5.86264 52.3516 6.2033 52.8132 6.74176C53.2747 7.28022 53.6209 7.94506 53.8516 8.73626C54.0604 9.46154 54.2665 10.0247 54.4698 10.4258C54.6731 10.8269 54.8983 11.1154 55.1456 11.2912C55.3929 11.467 55.6868 11.5934 56.0275 11.6703L56.0275 11.7692L55.3516 11.7692C54.8681 11.7692 54.4698 11.6813 54.1566 11.5055C53.8434 11.3297 53.5769 11.033 53.3571 10.6154C53.1374 10.1978 52.9286 9.62088 52.7308 8.88461C52.4121 7.75275 51.989 6.95055 51.4615 6.47802C50.9341 6.0055 50.2912 5.76923 49.533 5.76923L49.4341 5.76923L49.4341 5.47253L49.533 5.47253C51.3022 5.47253 52.1868 4.65934 52.1868 3.03297C52.1868 1.42857 51.3571 0.626375 49.6978 0.626374L48.6099 0.626374L48.6099 11.7692L47.489 11.7692L47.489 0.230769ZM56.8516 11.7692L61.2857 0.230769L62.3077 0.230769L66.7417 11.7692L65.5385 11.7692L63.4945 6.36264L59.7527 6.36264L58.0549 11.7692L56.8516 11.7692ZM61.4011 1.08791L59.8681 5.96703L63.3461 5.96703L61.5 1.08791L61.4011 1.08791ZM69.4121 0.230769L70.533 0.230769L70.533 11.4396C70.7417 11.4396 71.0714 11.4066 71.522 11.3407L74.2582 10.9286L74.2582 11.7692L69.4121 11.7692L69.4121 0.230769Z" fill="#5D5D5D" transform="translate(16.38 0)" />
  </g>
</svg>