<?xml version="1.0" encoding="utf-8"?>
<svg width="105.75" height="25" viewBox="0 0 105.75 25" fill="none" xmlns="http://www.w3.org/2000/svg">
  <g transform="translate(0.5 0.5)">
    <rect width="105" height="24" />
    <g id="Group">
      <g id="Group">
        <path id="Shape" d="M24 12C24 5.3724 18.6276 0 12 0C5.3724 0 0 5.3724 0 12M0.5496 15.6C1.20635 17.6865 2.42091 19.5537 4.062 21M7.8 23.244C9.108 23.7324 10.5228 24 12 24C13.4772 24 14.892 23.7324 16.2 23.244M19.938 21C21.5792 19.5537 22.7937 17.6865 23.4504 15.6" fill="none" stroke-width="1" stroke="#707070" />
        <path id="Path" d="M9.6 8.4C9.6 11.051 7.45097 13.2 4.8 13.2C2.14904 13.2 0 11.051 0 8.4C0 5.4 4.8 0 4.8 0C4.8 0 9.6 5.4 9.6 8.4C9.6 8.4 9.6 8.4 9.6 8.4C9.6 8.4 9.6 8.4 9.6 8.4Z" fill="none" stroke-width="1" stroke="#707070" transform="translate(7.2 5.4)" />
      </g>
      <path id="Path#1" d="M0.441582 11.4299L0.441582 0.346361C0.441582 0.346361 4.26126 0.346361 4.26126 0.346361C5.14443 0.346361 5.86937 0.493385 6.43606 0.787431C7.00276 1.08148 7.42226 1.48467 7.69457 1.997C7.96688 2.50932 8.10304 3.09201 8.10304 3.74504C8.10304 4.48106 7.931 5.12237 7.58694 5.66898C7.24287 6.21558 6.71021 6.60974 5.98896 6.85148C5.98896 6.85148 8.54462 11.4299 8.54462 11.4299L6.95493 11.4299C6.95493 11.4299 4.57037 7.095 4.57037 7.095C4.47838 7.09862 4.38271 7.10042 4.28334 7.10042C4.28334 7.10042 1.81049 7.10042 1.81049 7.10042L1.81049 11.4299L0.441582 11.4299L0.441582 11.4299ZM1.81049 5.88816C1.81049 5.88816 4.23918 5.88816 4.23918 5.88816C5.14442 5.88816 5.79025 5.69694 6.17664 5.31449C6.56301 4.93205 6.7562 4.40891 6.7562 3.74504C6.7562 3.07757 6.56209 2.5427 6.17387 2.14041C5.78565 1.73813 5.13339 1.53698 4.21711 1.53698C4.21711 1.53698 1.81049 1.53698 1.81049 1.53698L1.81049 5.88816L1.81049 5.88816ZM12.6955 11.6248C12.1582 11.6248 11.6707 11.5247 11.2327 11.3244C10.7948 11.1242 10.4471 10.8337 10.1895 10.4531C9.93191 10.0725 9.80312 9.61155 9.80312 9.07035C9.80312 8.5941 9.8988 8.20716 10.0902 7.9095C10.2815 7.61184 10.5373 7.37823 10.8574 7.20865C11.1776 7.03908 11.5317 6.91191 11.92 6.82712C12.3082 6.74234 12.6992 6.67469 13.0929 6.62417C13.6081 6.55923 14.0267 6.50962 14.3487 6.47535C14.6706 6.44108 14.9062 6.38244 15.0552 6.29946C15.2042 6.21648 15.2787 6.07217 15.2787 5.8665C15.2787 5.8665 15.2787 5.82321 15.2787 5.82321C15.2787 5.28924 15.1306 4.87433 14.8344 4.57846C14.5382 4.28262 14.0902 4.13469 13.4903 4.13469C12.8684 4.13469 12.3809 4.26819 12.0276 4.53517C11.6743 4.80216 11.4259 5.08719 11.2824 5.39026C11.2824 5.39026 10.046 4.9573 10.046 4.9573C10.2668 4.4522 10.5621 4.05802 10.9319 3.77481C11.3017 3.49158 11.7065 3.29315 12.1463 3.17949C12.586 3.06585 13.0193 3.00902 13.4462 3.00902C13.7185 3.00902 14.0322 3.04059 14.3873 3.10372C14.7424 3.16686 15.0865 3.29585 15.4196 3.49068C15.7525 3.68551 16.0294 3.97956 16.2502 4.37282C16.471 4.76609 16.5813 5.29284 16.5813 5.9531C16.5813 5.9531 16.5813 11.4299 16.5813 11.4299L15.2787 11.4299L15.2787 10.3043C15.2787 10.3043 15.2125 10.3043 15.2125 10.3043C15.1242 10.4847 14.977 10.6777 14.7709 10.8833C14.5648 11.089 14.2907 11.264 13.9485 11.4083C13.6063 11.5526 13.1886 11.6248 12.6955 11.6248C12.6955 11.6248 12.6955 11.6248 12.6955 11.6248C12.6955 11.6248 12.6955 11.6248 12.6955 11.6248ZM12.8942 10.4775C13.4094 10.4775 13.8445 10.3782 14.1996 10.1798C14.5547 9.98136 14.8234 9.72519 15.0055 9.4113C15.1877 9.09741 15.2787 8.76729 15.2787 8.42092C15.2787 8.42092 15.2787 7.25194 15.2787 7.25194C15.2236 7.31689 15.103 7.37553 14.9172 7.42783C14.7314 7.48015 14.5179 7.52526 14.2769 7.56313C14.0359 7.60102 13.8022 7.63348 13.5759 7.66054C13.3496 7.6876 13.1665 7.71016 13.0267 7.72819C12.6881 7.7715 12.3726 7.84095 12.08 7.93656C11.7875 8.03217 11.552 8.17468 11.3735 8.3641C11.195 8.55351 11.1058 8.81058 11.1058 9.1353C11.1058 9.57907 11.2742 9.91371 11.6108 10.1392C11.9476 10.3647 12.3753 10.4775 12.8942 10.4775C12.8942 10.4775 12.8942 10.4775 12.8942 10.4775C12.8942 10.4775 12.8942 10.4775 12.8942 10.4775ZM18.966 11.4299L18.966 3.11725L20.2685 3.11725L20.2685 11.4299L18.966 11.4299L18.966 11.4299ZM19.6283 1.73181C19.3744 1.73181 19.1563 1.64703 18.9742 1.47745C18.792 1.30788 18.701 1.10403 18.701 0.865905C18.701 0.627781 18.792 0.423933 18.9742 0.254359C19.1563 0.0847882 19.3744 1.51395e-06 19.6283 0C19.8822 0 20.1002 0.0847864 20.2825 0.254359C20.4645 0.423933 20.5556 0.627781 20.5556 0.865905C20.5556 1.10403 20.4645 1.30788 20.2825 1.47745C20.1002 1.64703 19.8822 1.73181 19.6283 1.73181C19.6283 1.73181 19.6283 1.73181 19.6283 1.73181C19.6283 1.73181 19.6283 1.73181 19.6283 1.73181ZM23.9559 6.42935L23.9559 11.4299L22.6532 11.4299L22.6532 3.11726L23.9117 3.11726L23.9117 4.41612C23.9117 4.41612 24.0221 4.41612 24.0221 4.41612C24.2207 3.99399 24.5225 3.65394 24.9273 3.39597C25.332 3.138 25.8546 3.00902 26.4949 3.00902C27.3524 3.00902 28.045 3.26698 28.5731 3.78293C29.1012 4.29885 29.3652 5.08719 29.3652 6.14793C29.3652 6.14793 29.3652 11.4299 29.3652 11.4299L28.0625 11.4299C28.0625 11.4299 28.0625 6.23451 28.0625 6.23451C28.0625 5.58148 27.8896 5.07186 27.5436 4.70565C27.1978 4.33944 26.723 4.15635 26.1196 4.15635C25.4977 4.15635 24.9816 4.35389 24.5713 4.74894C24.1609 5.14401 23.9559 5.70415 23.9559 6.42935C23.9559 6.42935 23.9559 6.42935 23.9559 6.42935L23.9559 6.42935ZM33.6707 11.4299L31.0874 3.11725L32.4563 3.11725L34.2888 9.48166L34.3771 9.48166L36.1877 3.11725L37.5787 3.11725L39.367 9.46001L39.4553 9.46001L41.2879 3.11725L42.6568 3.11725L40.0736 11.4299L38.7929 11.4299L36.9383 5.0439L36.8058 5.0439L34.9512 11.4299L33.6707 11.4299L33.6707 11.4299ZM46.8739 11.6248C46.3367 11.6248 45.8491 11.5247 45.4111 11.3244C44.9732 11.1242 44.6256 10.8337 44.3679 10.4531C44.1104 10.0725 43.9816 9.61155 43.9816 9.07035C43.9816 8.5941 44.0772 8.20716 44.2686 7.9095C44.4599 7.61184 44.7157 7.37823 45.0358 7.20865C45.3561 7.03908 45.7101 6.91191 46.0985 6.82712C46.4866 6.74234 46.8776 6.67469 47.2714 6.62417C47.7866 6.55923 48.2051 6.50962 48.5272 6.47535C48.8491 6.44108 49.0846 6.38244 49.2336 6.29946C49.3826 6.21648 49.4571 6.07217 49.4571 5.8665C49.4571 5.8665 49.4571 5.82321 49.4571 5.82321C49.4571 5.28924 49.309 4.87433 49.0128 4.57846C48.7166 4.28262 48.2686 4.13469 47.6688 4.13469C47.047 4.13469 46.5593 4.26819 46.206 4.53517C45.8527 4.80216 45.6044 5.08719 45.4609 5.39026C45.4609 5.39026 44.2244 4.9573 44.2244 4.9573C44.4452 4.4522 44.7405 4.05802 45.1103 3.77481C45.4801 3.49158 45.885 3.29315 46.3248 3.17949C46.7645 3.06585 47.1978 3.00902 47.6246 3.00902C47.8969 3.00902 48.2106 3.04059 48.5657 3.10372C48.9208 3.16686 49.265 3.29585 49.5979 3.49068C49.931 3.68551 50.2079 3.97956 50.4287 4.37282C50.6495 4.76609 50.7598 5.29284 50.7598 5.9531C50.7598 5.9531 50.7598 11.4299 50.7598 11.4299L49.4571 11.4299L49.4571 10.3043C49.4571 10.3043 49.3909 10.3043 49.3909 10.3043C49.3026 10.4847 49.1554 10.6777 48.9493 10.8833C48.7434 11.089 48.4692 11.264 48.1269 11.4083C47.7848 11.5526 47.3671 11.6248 46.8739 11.6248C46.8739 11.6248 46.8739 11.6248 46.8739 11.6248C46.8739 11.6248 46.8739 11.6248 46.8739 11.6248ZM47.0727 10.4775C47.5878 10.4775 48.023 10.3782 48.3781 10.1798C48.7333 9.98136 49.0018 9.72519 49.184 9.4113C49.3661 9.09741 49.4571 8.76729 49.4571 8.42092C49.4571 8.42092 49.4571 7.25194 49.4571 7.25194C49.4021 7.31689 49.2815 7.37553 49.0956 7.42783C48.9098 7.48015 48.6964 7.52526 48.4554 7.56313C48.2143 7.60102 47.9806 7.63348 47.7543 7.66054C47.528 7.6876 47.345 7.71016 47.2052 7.72819C46.8666 7.7715 46.5511 7.84095 46.2585 7.93656C45.966 8.03217 45.7305 8.17468 45.5519 8.3641C45.3735 8.55351 45.2843 8.81058 45.2843 9.1353C45.2843 9.57907 45.4526 9.91371 45.7894 10.1392C46.126 10.3647 46.5538 10.4775 47.0727 10.4775C47.0727 10.4775 47.0727 10.4775 47.0727 10.4775C47.0727 10.4775 47.0727 10.4775 47.0727 10.4775ZM56.8317 3.11726L56.8317 4.19964L55.0211 4.19964C55.0211 4.19964 55.0211 9.04871 55.0211 9.04871C55.0211 9.4095 55.0755 9.6792 55.1839 9.85779C55.2926 10.0364 55.4324 10.1554 55.6035 10.215C55.7746 10.2745 55.9559 10.3043 56.1471 10.3043C56.2906 10.3043 56.4085 10.2962 56.5004 10.2799C56.5924 10.2637 56.666 10.2501 56.7212 10.2393C56.7212 10.2393 56.9862 11.3867 56.9862 11.3867C56.8978 11.4191 56.7746 11.4525 56.6164 11.4868C56.4582 11.5211 56.2576 11.5382 56.0146 11.5382C55.6466 11.5382 55.2871 11.4606 54.9356 11.3055C54.5841 11.1503 54.2934 10.914 54.0635 10.5965C53.8335 10.279 53.7184 9.87854 53.7184 9.39507C53.7184 9.39507 53.7184 4.19964 53.7184 4.19964L52.4379 4.19964L52.4379 3.11726L53.7184 3.11726L53.7184 1.12568L55.0211 1.12568L55.0211 3.11726L56.8317 3.11726L56.8317 3.11726ZM62.263 11.6031C61.4461 11.6031 60.7424 11.4254 60.1518 11.0701C59.5612 10.7147 59.1068 10.2168 58.7883 9.57636C58.4701 8.93595 58.311 8.19002 58.311 7.33854C58.311 6.48707 58.4701 5.73571 58.7883 5.08449C59.1068 4.43325 59.552 3.92454 60.1241 3.55833C60.6964 3.19212 61.3652 3.00902 62.1307 3.00902C62.5722 3.00902 63.0083 3.08118 63.4387 3.2255C63.8693 3.36981 64.2613 3.60342 64.6144 3.92634C64.9677 4.24925 65.2493 4.67589 65.459 5.20626C65.6688 5.73662 65.7736 6.38966 65.7736 7.16537C65.7736 7.16537 65.7736 7.70655 65.7736 7.70655C65.7736 7.70655 59.6192 7.70655 59.6192 7.70655C59.6486 8.5941 59.9052 9.2742 60.3891 9.74684C60.8731 10.2195 61.4977 10.4558 62.263 10.4558C62.7745 10.4558 63.2143 10.3476 63.5822 10.1311C63.9502 9.91461 64.2171 9.58989 64.3826 9.15695C64.3826 9.15695 65.6411 9.50331 65.6411 9.50331C65.4425 10.1311 65.045 10.638 64.4489 11.0241C63.8528 11.4101 63.1241 11.6031 62.263 11.6031C62.263 11.6031 62.263 11.6031 62.263 11.6031C62.263 11.6031 62.263 11.6031 62.263 11.6031ZM59.6192 6.60252C59.6192 6.60252 64.4489 6.60252 64.4489 6.60252C64.4489 5.89898 64.2391 5.31539 63.8197 4.85178C63.4002 4.38816 62.8371 4.15635 62.1307 4.15635C61.6338 4.15635 61.2033 4.26999 60.839 4.4973C60.4747 4.7246 60.1876 5.02496 59.9778 5.39838C59.7682 5.77179 59.6486 6.17317 59.6192 6.60252C59.6192 6.60252 59.6192 6.60252 59.6192 6.60252L59.6192 6.60252ZM67.7607 11.4299L67.7607 3.11726L69.0192 3.11726L69.0192 4.37282C69.0192 4.37282 69.1077 4.37282 69.1077 4.37282C69.2622 3.96152 69.5418 3.62778 69.9466 3.37161C70.3513 3.11546 70.8078 2.98737 71.3156 2.98737C71.4112 2.98737 71.5309 2.98917 71.6742 2.99279C71.8178 2.99639 71.9264 3.0018 72 3.00902C72 3.00902 72 4.30788 72 4.30788C71.9558 4.29705 71.8556 4.27992 71.6992 4.25646C71.5428 4.23302 71.378 4.22129 71.2051 4.22129C70.587 4.22129 70.0755 4.40529 69.6706 4.7733C69.2659 5.14131 69.0635 5.60673 69.0635 6.16958C69.0635 6.16958 69.0635 11.4299 69.0635 11.4299L67.7607 11.4299L67.7607 11.4299ZM9.53818 16.2069C9.53818 16.2069 8.16927 16.2069 8.16927 16.2069C8.05888 15.6945 7.84729 15.2634 7.53449 14.9134C7.22171 14.5634 6.84452 14.2983 6.40294 14.1179C5.96135 13.9375 5.49033 13.8473 4.98987 13.8473C4.30542 13.8473 3.68629 14.0168 3.13248 14.356C2.57865 14.6951 2.13892 15.1949 1.81324 15.8552C1.48758 16.5153 1.32475 17.3253 1.32475 18.285C1.32475 19.2447 1.48758 20.0547 1.81324 20.715C2.13892 21.3752 2.57865 21.875 3.13248 22.2141C3.68629 22.5533 4.30542 22.7228 4.98987 22.7228C5.49033 22.7228 5.96135 22.6326 6.40294 22.4522C6.84452 22.2719 7.22171 22.0067 7.53449 21.6567C7.84729 21.3066 8.05888 20.8755 8.16927 20.3633C8.16927 20.3633 9.53818 20.3633 9.53818 20.3633C9.39835 21.1209 9.11315 21.7694 8.6826 22.3088C8.25207 22.8482 7.71848 23.2613 7.08188 23.5481C6.44526 23.835 5.74792 23.9784 4.98987 23.9784C4.02575 23.9784 3.16835 23.7474 2.41767 23.2857C1.66698 22.8239 1.07635 22.1672 0.645813 21.3158C0.215271 20.4642 0 19.454 0 18.285C0 17.1161 0.215275 16.1058 0.645813 15.2544C1.07635 14.4029 1.66698 13.7462 2.41767 13.2844C3.16835 12.8226 4.02575 12.5917 4.98987 12.5917C5.74792 12.5917 6.44526 12.7351 7.08188 13.022C7.71848 13.3088 8.25207 13.7219 8.6826 14.2613C9.11315 14.8007 9.39835 15.4493 9.53818 16.2069C9.53818 16.2069 9.53818 16.2069 9.53818 16.2069L9.53818 16.2069ZM15.0138 24C14.2484 24 13.5777 23.8214 13.0018 23.4642C12.4259 23.107 11.977 22.6074 11.655 21.9651C11.333 21.323 11.172 20.5725 11.172 19.7138C11.172 18.8478 11.333 18.092 11.655 17.4462C11.977 16.8003 12.4259 16.2989 13.0018 15.9417C13.5777 15.5845 14.2484 15.4059 15.0138 15.4059C15.7793 15.4059 16.4499 15.5845 17.0257 15.9417C17.6016 16.2989 18.0505 16.8003 18.3726 17.4462C18.6945 18.092 18.8555 18.8478 18.8555 19.7138C18.8555 20.5725 18.6945 21.323 18.3726 21.9651C18.0505 22.6074 17.6016 23.107 17.0257 23.4642C16.4499 23.8214 15.7793 24 15.0138 24C15.0138 24 15.0138 24 15.0138 24C15.0138 24 15.0138 24 15.0138 24ZM15.0138 22.8527C15.5952 22.8527 16.0737 22.7066 16.449 22.4144C16.8243 22.122 17.102 21.7379 17.2824 21.2616C17.4627 20.7854 17.5529 20.2694 17.5529 19.7138C17.5529 19.1582 17.4627 18.6404 17.2824 18.1605C17.102 17.6807 16.8243 17.2929 16.449 16.997C16.0737 16.7012 15.5952 16.5533 15.0138 16.5533C14.4324 16.5533 13.954 16.7012 13.5787 16.997C13.2033 17.2929 12.9255 17.6807 12.7452 18.1605C12.5648 18.6404 12.4747 19.1582 12.4747 19.7138C12.4747 20.2694 12.5648 20.7854 12.7452 21.2616C12.9255 21.7379 13.2033 22.122 13.5787 22.4144C13.954 22.7066 14.4324 22.8527 15.0138 22.8527C15.0138 22.8527 15.0138 22.8527 15.0138 22.8527C15.0138 22.8527 15.0138 22.8527 15.0138 22.8527ZM22.1453 12.7432L22.1453 23.8268L20.8426 23.8268L20.8426 12.7432L22.1453 12.7432L22.1453 12.7432ZM25.8325 12.7432L25.8325 23.8268L24.5298 23.8268L24.5298 12.7432L25.8325 12.7432L25.8325 12.7432ZM31.7718 24C30.9549 24 30.2511 23.8223 29.6605 23.4669C29.0699 23.1115 28.6154 22.6137 28.2972 21.9732C27.9788 21.3328 27.8196 20.5869 27.8196 19.7354C27.8196 18.884 27.9788 18.1326 28.2972 17.4813C28.6154 16.8302 29.0607 16.3214 29.6329 15.9552C30.2052 15.5891 30.874 15.4059 31.6393 15.4059C32.0809 15.4059 32.517 15.4781 32.9476 15.6223C33.3781 15.7667 33.77 16.0003 34.1233 16.3232C34.4766 16.6461 34.7581 17.0727 34.9677 17.6031C35.1775 18.1335 35.2825 18.7866 35.2825 19.5623C35.2825 19.5623 35.2825 20.1035 35.2825 20.1035C35.2825 20.1035 29.1279 20.1035 29.1279 20.1035C29.1572 20.991 29.414 21.6711 29.8978 22.1437C30.3818 22.6164 31.0065 22.8526 31.7718 22.8526C32.2834 22.8526 32.7231 22.7445 33.0911 22.5279C33.4591 22.3115 33.7259 21.9867 33.8915 21.5538C33.8915 21.5538 35.15 21.9002 35.15 21.9002C34.9512 22.5279 34.5538 23.0349 33.9577 23.4209C33.3616 23.8069 32.633 24 31.7718 24C31.7718 24 31.7718 24 31.7718 24C31.7718 24 31.7718 24 31.7718 24ZM29.1279 18.9995C29.1279 18.9995 33.9577 18.9995 33.9577 18.9995C33.9577 18.2958 33.7479 17.7123 33.3284 17.2487C32.9088 16.785 32.3459 16.5533 31.6393 16.5533C31.1425 16.5533 30.7121 16.6668 30.3478 16.8942C29.9835 17.1215 29.6964 17.4218 29.4867 17.7952C29.2769 18.1686 29.1572 18.57 29.1279 18.9995C29.1279 18.9995 29.1279 18.9995 29.1279 18.9995L29.1279 18.9995ZM40.7138 24C39.9191 24 39.2345 23.816 38.6606 23.448C38.0865 23.0799 37.6449 22.5731 37.3358 21.9273C37.0266 21.2814 36.8721 20.5436 36.8721 19.7138C36.8721 18.8696 37.0312 18.1236 37.3496 17.4759C37.6679 16.8284 38.1131 16.3214 38.6854 15.9552C39.2576 15.5891 39.9264 15.4059 40.6918 15.4059C41.2879 15.4059 41.8253 15.5142 42.3036 15.7306C42.782 15.9471 43.1739 16.2501 43.4793 16.6398C43.7847 17.0295 43.9743 17.484 44.0479 18.0036C44.0479 18.0036 42.7451 18.0036 42.7451 18.0036C42.6458 17.6247 42.426 17.2884 42.0855 16.9943C41.7452 16.7003 41.2879 16.5532 40.7138 16.5532C39.9521 16.5532 39.3386 16.8374 38.873 17.4056C38.4075 17.9739 38.1748 18.7289 38.1748 19.6704C38.1748 20.6339 38.4048 21.405 38.8647 21.984C39.3248 22.5632 39.9411 22.8526 40.7138 22.8526C41.2216 22.8526 41.6568 22.7246 42.0193 22.4685C42.3817 22.2123 42.6236 21.8569 42.7451 21.4023C42.7451 21.4023 44.0479 21.4023 44.0479 21.4023C43.9743 21.893 43.7929 22.3341 43.5041 22.7255C43.2153 23.1169 42.8343 23.4273 42.3615 23.6563C41.8886 23.8854 41.3394 24 40.7138 24C40.7138 24 40.7138 24 40.7138 24C40.7138 24 40.7138 24 40.7138 24ZM49.6339 15.5142L49.6339 16.5965L47.8233 16.5965C47.8233 16.5965 47.8233 21.4457 47.8233 21.4457C47.8233 21.8064 47.8776 22.0761 47.9861 22.2546C48.0948 22.4333 48.2346 22.5524 48.4057 22.6119C48.5767 22.6715 48.758 22.7012 48.9493 22.7012C49.0928 22.7012 49.2106 22.6931 49.3026 22.6769C49.3947 22.6605 49.4683 22.647 49.5234 22.6362C49.5234 22.6362 49.7884 23.7836 49.7884 23.7836C49.7001 23.816 49.5768 23.8494 49.4186 23.8836C49.2604 23.918 49.0598 23.9351 48.817 23.9351C48.449 23.9351 48.0892 23.8575 47.7378 23.7024C47.3863 23.5472 47.0956 23.3109 46.8656 22.9934C46.6357 22.676 46.5206 22.2755 46.5206 21.792C46.5206 21.792 46.5206 16.5965 46.5206 16.5965L45.2401 16.5965L45.2401 15.5142L46.5206 15.5142L46.5206 13.5225L47.8233 13.5225L47.8233 15.5142L49.6339 15.5142L49.6339 15.5142ZM51.5988 23.8268L51.5988 15.5142L52.9015 15.5142L52.9015 23.8268L51.5988 23.8268L51.5988 23.8268ZM52.2612 14.1287C52.0073 14.1287 51.7893 14.0439 51.6072 13.8743C51.425 13.7048 51.3339 13.5009 51.3339 13.2628C51.3339 13.0246 51.425 12.8208 51.6072 12.6512C51.7893 12.4817 52.0073 12.3969 52.2612 12.3969C52.5152 12.3969 52.7332 12.4817 52.9153 12.6512C53.0975 12.8208 53.1886 13.0246 53.1886 13.2628C53.1886 13.5009 53.0975 13.7048 52.9153 13.8743C52.7332 14.0439 52.5152 14.1287 52.2612 14.1287C52.2612 14.1287 52.2612 14.1287 52.2612 14.1287C52.2612 14.1287 52.2612 14.1287 52.2612 14.1287ZM58.7304 24C57.965 24 57.2944 23.8214 56.7185 23.4642C56.1425 23.107 55.6936 22.6074 55.3717 21.9651C55.0496 21.323 54.8886 20.5725 54.8886 19.7138C54.8886 18.8478 55.0496 18.092 55.3717 17.4462C55.6936 16.8003 56.1425 16.2989 56.7185 15.9417C57.2944 15.5845 57.965 15.4059 58.7304 15.4059C59.4959 15.4059 60.1665 15.5845 60.7424 15.9417C61.3183 16.2989 61.7673 16.8003 62.0892 17.4462C62.4111 18.092 62.5722 18.8478 62.5722 19.7138C62.5722 20.5725 62.4111 21.323 62.0892 21.9651C61.7673 22.6074 61.3183 23.107 60.7424 23.4642C60.1665 23.8214 59.4959 24 58.7304 24C58.7304 24 58.7304 24 58.7304 24C58.7304 24 58.7304 24 58.7304 24ZM58.7304 22.8527C59.3118 22.8527 59.7903 22.7066 60.1656 22.4144C60.5409 22.122 60.8188 21.7379 60.999 21.2616C61.1794 20.7854 61.2695 20.2694 61.2695 19.7138C61.2695 19.1582 61.1794 18.6404 60.999 18.1605C60.8188 17.6807 60.5409 17.2929 60.1656 16.997C59.7903 16.7012 59.3118 16.5533 58.7304 16.5533C58.1489 16.5533 57.6706 16.7012 57.2953 16.997C56.92 17.2929 56.6421 17.6807 56.4619 18.1605C56.2815 18.6404 56.1913 19.1582 56.1913 19.7138C56.1913 20.2694 56.2815 20.7854 56.4619 21.2616C56.6421 21.7379 56.92 22.122 57.2953 22.4144C57.6706 22.7066 58.1489 22.8527 58.7304 22.8527C58.7304 22.8527 58.7304 22.8527 58.7304 22.8527C58.7304 22.8527 58.7304 22.8527 58.7304 22.8527ZM65.8619 18.8262L65.8619 23.8267L64.5594 23.8267L64.5594 15.5142L65.8179 15.5142L65.8179 16.8131C65.8179 16.8131 65.9282 16.8131 65.9282 16.8131C66.1269 16.3908 66.4287 16.0508 66.8335 15.7929C67.2382 15.5349 67.7607 15.4059 68.4011 15.4059C69.2585 15.4059 69.9512 15.6639 70.4792 16.1798C71.0073 16.6958 71.2714 17.484 71.2714 18.5448C71.2714 18.5448 71.2714 23.8267 71.2714 23.8267L69.9687 23.8267C69.9687 23.8267 69.9687 18.6314 69.9687 18.6314C69.9687 17.9784 69.7958 17.4687 69.4498 17.1026C69.1039 16.7363 68.6292 16.5532 68.0258 16.5532C67.4038 16.5532 66.8877 16.7508 66.4775 17.1458C66.0671 17.5409 65.8619 18.101 65.8619 18.8262C65.8619 18.8262 65.8619 18.8262 65.8619 18.8262L65.8619 18.8262Z" fill="#707070" stroke-width="0.5" stroke="#707070" transform="translate(33 0)" />
    </g>
  </g>
</svg>