<svg xmlns="http://www.w3.org/2000/svg" width="25.5" height="25.5" fill="none"><path d="M16.814 2.789c-.25.32-.44.596-.421.614.018.017 1.544 1.221 3.391 2.675 1.846 1.455 3.389 2.672 3.427 2.706.062.054.117 0 .537-.53l.467-.591-3.442-2.716A514.776 514.776 0 0 0 17.3 2.22c-.017-.007-.235.25-.486.569M10.716 4.06c-1.172.993-2.145 1.804-2.163 1.803-.017-.001-.336-.365-.709-.809-.372-.443-.69-.791-.706-.773-.211.234-5.863 6.943-5.863 6.959 0 .013.593.023 1.318.023.724 0 1.317.01 1.317.023 0 .012-.593.9-1.318 1.973a107.976 107.976 0 0 0-1.317 1.974c0 .014.841.025 1.87.025h1.87v7.99h15.512V11.221l1.345-.011 1.345-.011L18.123 6.8a3195.32 3195.32 0 0 0-5.185-4.472c-.091-.072-.125-.045-2.222 1.732m6.059 2.9a416.537 416.537 0 0 1 3.731 3.24c.017.027-.157.043-.486.043h-.512V22.27H6.035v-7.012h3.511c3.001 0 3.507-.009 3.488-.06-.013-.033-.618-.952-1.345-2.043l-1.322-1.982.756.024c.416.013 1.021.034 1.344.047.395.015.584.008.574-.021-.008-.024-.866-1.05-1.906-2.281a194.853 194.853 0 0 1-1.904-2.27c-.007-.019.802-.725 1.799-1.569l1.812-1.535.114.097c.063.053 1.782 1.535 3.819 3.295" fill-rule="evenodd" fill="#000"/></svg>