<svg width="25.5" height="25.5" fill="none" xmlns="http://www.w3.org/2000/svg"><path d="M0 0h25.5v25.5H0z"/><path d="m12.851 2.25 10.399 8.977h-2.74V23.25H5.04V11.227H2.25L12.851 2.25z"/><path d="M21.51 11.227h1.74l-1.158-1-9.24-7.977-9.421 7.977-1.181 1h2.79V23.25h15.47V11.227h1zm-2 11.023V10.227h1.051l-7.716-6.661-7.867 6.661H6.04V22.25h13.47z" fill="#000" fill-rule="evenodd"/><path d="m16.82 2.785 6.93 5.465" stroke-width="1.5" stroke="#000"/><path d="m7.168 4.25 5.918 7-2.722-.072 2.722 4.072H1.25l2.7-4h-2.7l5.918-7z" fill="#000" fill-rule="evenodd"/></svg>